<?xml version="1.0" encoding="UTF-8"?>
<svg id="Calque_1" data-name="Calque 1" xmlns="http://www.w3.org/2000/svg" viewBox="0 0 557.46 153.2">
  <defs>
    <style>
      .cls-1 {
        fill: #23201b;
      }

      .cls-2 {
        fill: #201c17;
      }

      .cls-3 {
        fill: #fcfcfc;
      }

      .cls-4 {
        fill: #f7e5aa;
      }

      .cls-5 {
        fill: #f9f1d7;
      }

      .cls-6 {
        fill: #004d86;
      }

      .cls-7 {
        fill: #23201c;
      }

      .cls-8 {
        fill: #f8cc48;
      }

      .cls-9 {
        fill: #211d19;
      }

      .cls-10 {
        fill: #f5cb3b;
      }

      .cls-11 {
        fill: #221e1a;
      }

      .cls-12 {
        fill: #201d18;
      }

      .cls-13 {
        fill: #f6e7ab;
      }

      .cls-14 {
        fill: #211e1a;
      }

      .cls-15 {
        fill: #f5e197;
      }

      .cls-16 {
        fill: #f6e8b6;
      }

      .cls-17 {
        fill: #6b6968;
      }

      .cls-18 {
        fill: #f8e6a7;
      }

      .cls-19 {
        fill: #f6e5a6;
      }

      .cls-20 {
        fill: #f4d564;
      }

      .cls-21 {
        fill: #211d18;
      }

      .cls-22 {
        fill: #f6e4a5;
      }

      .cls-23 {
        fill: #24201c;
      }
    </style>
  </defs>
  <path class="cls-9" d="M282.36,134.79c-.98.11-1.87.06-2.79,0l-.03-5.61c0-.92-.42-1.7-1.35-1.97-2.54-.73-6.22.3-6.24,2.46l-.04,5.15c-.99.06-1.8.09-2.68-.04v-8.73c.84-.25,1.66-.09,2.47-.05.11.38.1.61.27,1,2-1.59,6.64-1.46,9.1-.69.26.08.42.52.64.6.18.07,3.8-2.22,9.6-.6.71.2,1.33,1.03,1.33,1.69l.02,6.79c-.96.13-1.77,0-2.71,0l-.06-5.85c-.03-2.58-4.4-2.13-5.82-1.54-.65.27-1.56.76-1.64,1.51-.21,1.97,0,3.79-.09,5.88Z"/>
  <path class="cls-9" d="M478.17,134.82l-.07-6.12c-.03-2.65-8.16-2.13-8.24.73l-.14,5.28c-.95.19-1.84.3-2.7,0l.04-8.69c.91-.12,1.65-.09,2.44-.03.14.41.06.73.3,1.09,1.68-1.71,7.2-1.44,9.29-.82,1.19.35,1.84,1.52,1.85,2.7.01,2.01.07,3.87-.04,5.83-.93.1-1.68.13-2.74.05Z"/>
  <path class="cls-12" d="M460.15,134.81l-.03-6.12c-.01-2.76-8.02-2.07-8.09.75l-.14,5.39-2.64-.03-.04-8.8c.78-.1,1.57-.17,2.34.03.3.08.21.77.31.97l1.41-.74c.18-.1,9.91-2.2,9.87,2.69l-.04,5.84c-.96.08-1.78.1-2.94.03Z"/>
  <path class="cls-9" d="M428.34,125.96c-1.77,2.74-3.45,4.86-5.22,7.3-2.51,3.46-3.25,5.84-8.6,4.98-.16-.59-.12-1.02,0-1.56,2.02.73,3.92,0,4.82-1.99-.53-1.09-1.29-1.96-2.12-2.78-.63-.63-.9-1.48-1.43-2.15-.97-1.23-2.01-2.26-2.84-3.75,1.06-.12,1.99-.09,3.08-.04.82,1.49,1.92,2.69,2.85,4.1.62.93.93,2.07,1.94,2.8.92-.58,1.22-1.77,1.83-2.69l2.77-4.18c1.03-.12,1.97-.03,2.91-.02Z"/>
  <path class="cls-11" d="M333.59,126.17c.63-.58,1.88-.19,2.78-.09l-3.84,5.67c-.65.96-1.34,1.83-1.88,2.89-.67.31-2.41.42-3.07.03-1.58-1.6-3.23-4.81-4.44-6.11-.67-.72-1.18-1.57-1.55-2.57l3.01-.07c.62,1.43,1.43,2.62,2.37,3.83,1.01,1.3,1.15,2.62,2.12,3.22,1.5-1.5,3.13-5.55,4.5-6.81Z"/>
  <rect class="cls-2" x="353.35" y="122.56" width="2.98" height="12.33"/>
  <path class="cls-7" d="M349.2,134.66c-.9.38-1.81.2-2.83.11v-12.14c.99-.09,1.79-.1,2.78,0l.05,12.03Z"/>
  <path class="cls-9" d="M395.17,127.15c-1.07.24-2.43.09-3.55.6-3.27,1.47-2.05,3.86-2.33,7.03-.85.14-1.78.17-2.7-.02v-8.79s2.43-.04,2.43-.04l.28,1.58c1.55-1.49,3.5-1.84,5.79-1.72.34.02.39,1.25.06,1.37Z"/>
  <rect class="cls-1" x="339.15" y="125.93" width="2.81" height="8.91"/>
  <path class="cls-23" d="M514.17,130.57c-.14.8-.16,1.23-.84,1.18-.8-.05-.8-.42-.91-1.14-.41-2.65-.99-5.17-.67-7.94.93-.22,1.97-.11,3.02-.06.29,2.66-.11,5.2-.6,7.96Z"/>
  <path class="cls-14" d="M515.16,134.78c-1.26.09-2.38.13-3.6.02-.18-.68-.16-1.29-.04-2.03,1.18-.14,2.27-.03,3.57-.05.19.65.09,1.22.07,2.06Z"/>
  <path class="cls-11" d="M412.01,133.61c-.36-.16-1.4.12-1.5-.39-.44-2.25.55-6.54-1.21-6.92-2.39-.52-12.61-1.58-12.05,2.35.84-.03,2.02.34,2.66-.12.49-.47.67-1.26,1.57-1.36,1.39-.15,5.17-.66,5.99.77,1.25,2.21-5.15.82-9.47,2.51-.86.34-1.56,1.3-1.44,2.17.44,3.2,7.47,2.65,10.17,1.56.33-.13.53-.46.88-.41.43.07.38,1.96,4.48.98.21-.23.22-1.02-.08-1.16ZM406.53,132.81c-1.55.85-6.41,1.34-6.94-.33-.24-.75.9-1.36,1.56-1.44l6.3-.74c.45,1.23.05,1.99-.91,2.51Z"/>
  <path class="cls-9" d="M311.31,133.56c-.43-.11-1.37.17-1.47-.31-.5-2.41.59-6.62-1.37-7.01-2.27-.45-12.55-1.52-11.82,2.39,2.71.13,2.25.43,3.36-1.12,1.87-.73,4.01-.75,5.93-.25.63.16,1.46,1.29.79,1.64-2.03,1.05-10.83-.11-10.83,3.54,0,3.57,8.88,2.91,11.15,1.3.5,1.75,3.8,1.31,4.33,1.03.28-.15.24-1.14-.06-1.21ZM305.8,132.85c-1.63.82-6.47,1.28-6.88-.42-.19-.77,1.01-1.34,1.68-1.41l6.21-.71c.42,1.25.01,2.03-1.01,2.54Z"/>
  <path class="cls-11" d="M368.14,133.57c-5.6.16-6.13-2.69-5.34-2.7l12.25-.11c-.26-5.88-8.51-5.47-12.29-4.34-1.36.41-2.53,1.51-3.06,2.68-1.17,2.6,1.61,4.76,3.6,5.36,3.22.98,9.38,1.11,11.35-2.36-3.88-.75-2.63,1.36-6.52,1.47ZM371.95,129.31l-9.29.02c.11-2.93,8.34-3.33,9.29-.02Z"/>
  <path class="cls-14" d="M498.48,128c-.9-1.27-2.07-1.83-3.58-2.02-3.66-.47-9.11-.67-10.67,3.42-.49,1.28.19,2.74,1.25,3.73,2.62,2.44,8.9,2.36,11.78.86.78-.41,1.32-1.14,1.8-1.91-4.11-.71-2.74,1.75-6.98,1.48-1.85-.11-4.88-.37-5.06-2.71l12.39-.07c.23-1.23-.4-2-.95-2.78ZM487.14,129.34c.58-1.65,2.21-2.23,3.88-2.35,2.03-.09,4.19.1,5.47,2.24l-9.35.11Z"/>
  <path class="cls-6" d="M557.05,103.9l-17.54,2.03-2.65.27c-4.79.48-9.34.86-14.17,1.01-5.85.18-11.51.56-17.28-.37-2.84-.45-5.29-1.84-7.94-2.76-1.14-.4-2.18-.79-3.17-1.43-.66-.42-1.51-.57-2.14-1.03-.78-.56-1.59-.62-2.42-.98-2.38-1.03-4.57-2.23-7.09-2.93-3.99-1.1-7.72-2.56-11.93-2.89-9.27-.72-18.43-1.09-27.67-.14l-8.03.82c1.6-1.1,2.51-2.38,3.76-3.42,1.17-.97,2.12-2.03,3.19-3.09l3.13-3.1,3.1-3.14c1.02-1.03,1.93-2.02,2.93-3.11l3-3.24,3.2-3.69c1.1-1.27,2.11-2.53,3.16-3.84l2.24-2.8,2.57-3.62c1.5-2.12,2.68-4.4,3.87-6.72.43-.83.52-1.85.81-2.79.5-1.61.78-3.61-.13-5.08-.82-1.32-4.71-.49-6.14-.15-2.54.61-4.78,1.81-7.16,2.81-.81.34-1.61.56-2.4.97l-2.88,1.5c-.8.42-1.56.64-2.33,1.07-2.44,1.36-4.85,2.7-7.16,4.26-1.11.75-2.02,1.53-3.21,2.16-.91.48-1.63,1.42-2.54,1.96-1.43.85-6.72,5.22-8.1,6.49l-3.25,3c-1.8,1.67-7.9,8.08-8.92,9.88-.38.67-1.14,1.22-1.6,1.92-.91,1.37-1.66,2.79-2.66,4.08-.76.98-1.24,1.97-1.77,3.1-1.04,2.23-2.38,4.28-3.1,6.65-1.81,5.99-.85,5.31-4.09,6.7-3.33,1.43-6.71,2.61-10.39,2.75-9.02.35-12.07.03-20.6-2.62-2.2-.68-4.39-1.67-5.4-3.92-.87-1.95,2.72-5.24,3.22-5.53,4.06-2.32,7.91-3.45,12.66-3.24,1.89.08,5.55,4.6,10.33.29.69-.62,1.33-1.09,1.26-2.07-.07-.92-.63-1.39-1.48-1.86-1.31-.73-2.62-1.26-4.13-1.62-8.09-1.93-23.07-1.55-31.04,1.06l-2.95.97c-3.17,1.04-7.17,4.35-5.72,8.48.93,2.66,2.57,4.95,4.73,6.74l4.06,3.36c-4.39.36-8.45.13-12.73.07-4.94-.06-10.86-.92-15.16-3.44-1.37-.8-2.6-2.41-3.14-3.94-.7-2.01-.36-4.13.02-6.15.36-1.96-.65-3.6-2.71-3.92-3.08-.49-6.2.08-9.25.81-1.17.28-2.06.58-2.85,1.54-3.24,3.94-7.47,8.47-12.26,10.53-3.39,1.45-9.91.85-9.63-1.94.1-.99.54-2.21,1.31-2.87,1.14-.97,2.35-2.06,3.73-2.66,7.97-3.46,7.62-1.72,13.04-3.5.82-.27,1.51-.3,2.18-1.01.44-.47.93-1.06.76-1.75-.13-.52-.71-.96-1.32-1.2-4.3-1.69-13.92-.03-18.71.76-2.61.43-4.73,1.83-7.03,2.97-1.33.66-2.16,1.62-3.25,2.58-1.14,1-2.05,1.89-2.82,3.23-1.22,2.11-3.05,4.39-2.37,7.14l-10.67,2.8-5.14,1.32c-.76-.61-1.77-1.16-2.62-1.71-.86-.56-1.49-1.42-2.47-1.9.24-.69.94-.62,1.39-1.01,1.21-1.03,2.38-2.07,3.35-3.32.3-.39.28-1.03.49-1.44,1.24-2.47.02-6.3-1.54-8.02-.77-.85-1.54-1.83-2.35-2.56-2.79-2.49-5.99-3.26-9.63-3.29-4.61-.04-9.16.82-12.8,3.78-.63.51-1.19,1.7-.75,2.44,1.46,2.43,6.92,2.05,9.48,1.96,1.53-.05,3.04,1.69,3.09,2.61.05.9-.33,1.54-.87,2.27-2.4,3.26-1.94,1.85-5.29,4.54v4.76s4.86,2.8,4.86,2.8c1.02.59,2.07,1.12,2.94,2.07-2,.82-3.93.97-5.87,1.48-3.51.93-5.65,1.91-9.45,2.97-2.55.71-4.79,1.82-7.21,2.63-1.39.47-2.76.79-4.13,1.44-2.05.97-4.14,1.57-6.22,2.45l-6.4,2.71-7,3.04c-2.7,1.17-14.35,6.62-16.21,7.81l-3.07,1.97c-1.83,1.17-5.13,4.4-6.61,6.31-.49.63-.72,1.52-1.05,2.25-.85,1.93.24,3.88,2.21,4.56,3.27,1.12,6.63,1.13,10.14,1.14,5.33.02,10.32-1.07,15.59-1.92,4.03-.65,7.71-1.97,11.62-3.01,2.25-.6,8.42-2.55,10.45-3.35l7.8-3.09c1.08-.43,2.06-.75,3.11-1.25,1.29-.61,2.57-1.27,3.89-1.81.9-.36,1.68-.66,2.55-1.11l3.64-1.93c.94-.5,1.77-.81,2.71-1.38l2.94-1.81c.72-.44,1.61-.78,2.31-1.34l3.18-2.54,3.05-3.18c.82-.86,1.28-2.03,2.02-3.01,2.26-3.01,2.45-8.23,1.1-11.7,3.89-1.04,6.24-2.34,10.03-3.55,1.15-.37,2.4-.5,3.42-1.15.83-.52,1.25.04,1.84.46,4.7,3.36,10.91,3.74,16.48,3.91,5.99.18,11.58-1.05,17.02-3.34,1.24-.52,2.37-1.03,3.49-1.83.28-.19,1.04.39,1.27.65.58.67,1.61.94,2.35,1.32,2.83,1.42,5.58,2.61,8.67,3.32,5,1.15,9.77,2.17,14.94,2.46,9.18.51,18.04-.29,27.08-1.28,9.04,2.5,19.31,2.63,28.62,1.87,4.92-.4,9.55-1.57,14.28-2.96,1.03-.3,2-.45,3.03-.85,2.19-.85,4.27-1.83,6.48-2.64l6.69-2.46c1.16-.42,2.27-.59,3.44-.92,4.59-1.28,9.02-2.52,13.82-2.93,7.39-.64,14.55-1.12,21.92-.58,5.29.39,7.67,2.31,12.22,3.94,2.22.8,4.21,2.09,6.51,2.72,1.34.37,2.56.8,3.88,1.24,4.32,1.45,8.7,1.92,13.31,2.11,6.9.28,13.6.29,20.5,0,7.98-.33,15.57-1.74,23.4-3.16,3.78-.68,7.23-1.7,10.89-2.9.5.03.48-.24-.04-.33ZM248.09,120.24c-1.17,2.17-2.46,4.19-4.26,5.86-1.44,1.34-2.74,2.64-4.41,3.72-1.05.68-2.01,1.58-3.1,2.16-2.06,1.08-4.24,2.44-6.11,3.22l-3.24,1.36c-1.17.49-2.31,1.09-3.51,1.5-2.35.79-4.61,1.55-6.89,2.55-1.38.6-2.73.93-4.14,1.36-2.98.9-5.76,2.17-8.79,2.87l-4.94,1.14c-1.86.43-13.87,3.16-11.8-1.51.67-1.51,1.98-2.3,3.05-3.43,1.68-1.77,3.85-2.83,5.75-4.32.85-.66,1.71-.97,2.62-1.51l3.55-2.14c.64-.39,1.25-.63,1.94-.93,1.54-.67,2.99-1.5,4.46-2.28.7-.37,1.36-.49,2.08-.82l4.26-1.96c.94-.43,1.82-.68,2.8-1.06l7.69-3.03,7.94-3.12,7.54-2.96c.99-.39,1.96-.54,2.95-.99.98-.45,4.59-1.88,5.38-1.54,1.22.51,0,4.36-.83,5.9ZM432.18,85.48c-1,.76-1.81,1.71-3.21,2.21.51-1.87,3.3-6.3,4.5-8.13l1.9-2.89,3.08-3.88c2.15-2.71,7.05-7.29,9.83-9.33.95-.7,2-1.12,2.87-1.97.52-.51,1.3-.77,1.92-1.09-.45,1.19-1.34,1.84-1.89,2.79-.87,1.49-1.97,2.73-3,4.15-2.33,3.21-6.88,9.13-9.61,11.86-1.11,1.11-1.78,2.61-3.33,3.31-.69,1.34-1.91,2.09-3.06,2.97Z"/>
  <path class="cls-6" d="M58.4,98.1c1.03-.85,1.91-1.8,2.97-2.66l2.08-1.68c-.48.39,6.1-5.97,6.19-6.05l3.22-3.26c.89-.9,1.5-1.98,2.65-2.67.8-.48,1.04-1.69,1.8-2.22,1.23-.86,1.9-2.16,2.91-3.14,1.21-1.17,2.15-2.39,3.23-3.67l5.38-6.41c1.11-1.32,2.04-2.67,3.25-3.94.53-.56.71-1.47,1.36-2,1.07-.86,1.58-2.1,2.42-3.12l1.52-1.84c1.13-1.38,1.9-2.99,3.11-4.3.4-.44,4.23-6.22,4.86-7.18l2.28-3.46c.67-1.01.96-2.1,1.65-3.14,1.28-1.91,1.83-3.63,2.8-5.89l1.72-4.02,1.59-6.81c1.04-4.45,1.18-9.04.27-13.61-6.18.42-11.97,1.76-17.98,2.83-3.44.61-6.52,1.7-9.83,2.7-2.52.76-4.99,1.36-7.38,2.53-1.1.53-2.25.73-3.33,1.24l-6.16,2.9c-3.39,1.59-3.87,2.26-6.24,3.38-1.5.7-2.65,2.08-4.22,2.69-3.42,1.31-7.34,2.07-10.81.7-1.05-.42-1.68-.86-2.02-1.79-1.1-3.03,3.63-4.65,6.41-6.76.91-.69,1.8-1.06,2.8-1.56,2.65-1.31,2.7-1.75,6.01-3.08,1.38-.56,2.72-1.27,4.06-1.91,1.02-.49,1.98-.73,3.04-1.13l6.37-2.39c.86-.32,1.67-.42,2.56-.66,4.21-1.15,8.16-2.5,12.5-3.25,6.93-1.21,13.58-2.85,20.6-3.08l4.69-.15c3.55-.11,10.08-.85,12.53,1.37.77.7.72,1.6.86,2.58.73,5.02.93,9.96.34,15l-.57,4.82c-.4,3.42-1.87,6.49-2.8,9.77-.64,2.26-1.67,4.19-2.58,6.32s-1.88,4.21-3.16,6.25c-.83,1.31-1.27,2.82-2.25,4.04-.82,1.02-1.38,2.12-2.04,3.23-.71,1.19-1.53,2.26-2.39,3.36-.76.98-1.2,2.26-2.15,3.07-.8.69-1.14,1.61-1.76,2.37l-3.25,3.97c-6.44,7.88-13.63,14.91-21.34,21.54-1.32,1.13-2.52,2.05-3.76,3.24-.79.75-2.03,1.15-2.67,2.11-.6.89-1.63,1.11-2.37,1.76-1.31,1.15-2.64,2.08-4.02,3.12l-3.05,2.29c-1.24.93-2.65,1.54-3.79,2.68-.5.5-1.28.62-1.81,1.03-1.86,1.46-3.88,2.53-5.86,3.78s-3.76,2.33-5.84,3.32c-1.63.77-3.01,1.89-4.76,2.46s-3.26,1.52-4.93,2.21c-1.03.43-2.01.7-3.05,1.06-3.04,1.05-5.89,2.29-9.08,2.89-8.09,1.52-13.83,2.6-22.1.21-1.37-.4-2.86-.44-4.09-1.24s-2.41-1.69-3.52-2.67c-.08-.07-2.06-2.62-1.34-3.87.15-.26.94,0,1.14.22.64.7,1.53.87,2.21,1.42,1.55,1.26,3.13,2.32,5.03,2.92,7.43,2.32,11.57,1.66,19.05-.12,2.7-.64,4.99-1.96,7.54-2.94,2.01-.77,3.66-1.92,5.54-2.94l2.16-1.17,3.17-2.13c.95-.64,1.84-1.14,2.75-1.83l5.74-4.36,3.91-3.24Z"/>
  <path class="cls-6" d="M230.02,98.49c-1.28.43-2.11,1.15-3,1.92-.61.52-1.5.71-2.04,1.31-1.29,1.43-5.85,4.22-7.69,4.75-8.35,2.43-17.23-6.16-21.33-12.46l-1.88-2.89c1.21-.52,1.71-1.68,2.68-2.32,1.27-.83,2.02-1.98,3.08-2.84,1.21-.97,2.07-2.05,3.1-3.16,1.03-1.1,2.02-2.09,3-3.25l2.74-3.26c1.6-1.91,2.91-3.91,4.23-6.03,1.36-2.19,4.92-8.82,5.14-10.94l.16-1.61c.39-3.86,1.57-12.4-3.87-14.46-2.1-.8-4.38-.19-6.41.6l-2.09.82c-1.35.53-2.4,1.62-3.62,2.37-3.21,1.97-10.78,9.59-12.64,12.89-.53.95-1.3,1.9-1.95,2.77-.56.75-.74,1.44-1.14,2.22-1.28,2.54-2.47,5-3.01,7.83-.88,4.58-1.51,9.01-.76,13.72l-5.98,4.69c-.98.77-2.18,1.24-3.13,2.15-.17.16-6.34,3.95-6.78,4.17-.91.44-1.79.74-2.67,1.26-1.4.82-2.81,1.57-4.37,2.09-2.96.99-5.7,2.37-8.79,2.93-2.19.4-4.34.66-6.54.9-2.44.26-4.68-.06-7.02-.56-2.04-.44-3.65-1.48-5.25-2.76-.97-.78-2.35-1.47-2.47-2.82.17-.69,1.37-.63,1.92-.92l4.96-2.68c1.27-.69,2.45-1.23,3.64-2.09,1.85-1.32,4-2.13,5.64-3.75.67-.66,1.71-.8,2.34-1.5.99-1.1,2.26-1.74,3.31-2.7l3.61-3.31,2.83-2.97c.88-.93,1.45-2.17,2.48-2.99.68-.55.82-1.45,1.27-2.13,1.06-1.61,2.19-3.16,2.85-5,1.29-3.62,2.51-7.03,3.2-10.82,1.88-10.33,3.22-21.25.04-31.47-.39-1.26-.82-2.56-1.82-3.52-.45-.44-1.28-1.15-1.93-1.3-2.55-.6-4.97.32-7.42.95-2.06.53-3.72,1.78-5.47,2.92-.75.49-1.67.68-2.24,1.41-.75.97-1.91,1.48-2.78,2.29l-3.53,3.32-2.63,2.77-3.25,3.66c-.95,1.07-1.58,2.35-2.77,3.24-.59.44-.71,1.38-1.23,1.88-1.2,1.16-2.03,2.47-3.02,3.79l-2.35,3.1c-.93,1.23-1.61,2.61-2.79,3.66-.55.49-.57,1.38-1.03,1.88-1.5,1.62-2.38,3.49-3.55,5.32-2.15,3.36-4.64,8.54-5.91,12.42-2.32,7.1-3.34,14.43-1.85,21.83-2.02,1.54-4.58,1.89-4.52,3.97.05,1.51,6.2,1.36,7.37,1.34l2.56,2.56c1.04,1.04,2.47,1.61,3.53,2.67.56.56,1.34.61,1.98.98,2.42,1.39,4.83,2.63,7.57,3.23,9.71,2.1,16.24,1.61,25.96-.06,3.57-.61,6.74-1.88,10.12-3.06,4.04-1.41,3.68-1.5,7.37-3.16,1.28-.58,2.44-1.19,3.68-1.89l4.96-2.77c1.36-.76,2.53-1.75,4.08-2.45,1.43.7,2.43,2.23,3.73,3.28l2.69,2.17c1.96,1.58,4.12,2.91,6.35,4.14,1.25.7,2.65,1.18,3.94,1.8,8.6,4.19,21.53.88,26.01-7.19.5-.9.78-1.96.36-2.87ZM126.61,90.25l.39-4.3c.35-3.93,1.75-7.59,2.89-11.34.33-1.09.52-2.08.99-3.13l3.25-7.32c.74-1.66,1.81-3.07,2.54-4.74.61-1.38,1.74-2.41,2.41-3.72.78-1.51,4.78-6.76,6.07-8.2l3.25-3.64c2.27-2.55,8.3-8.03,11.34-9.93.19,4.35-.13,8.47-.74,12.65l-.74,5.01c-.51,3.47-1.95,6.59-2.93,9.94-.68,2.31-1.93,4.25-2.94,6.38-1.4,2.96-2.49,3.89-3.19,5.2-1.3,2.45-6.63,8-8.97,9.64-1.37.96-2.5,2.15-4.05,2.9-1.51.74-2.82,1.87-4.38,2.53-.76.32-1.51.45-2.25.88-.92.54-1.92.72-2.94,1.21ZM192.11,82.47c-.32-2.81.52-5.44.83-8.27.35-3.18,1.76-6.04,2.94-8.96.37-.93.62-1.67,1.17-2.52l1.78-2.75c2.22-3.43,6.71-7.26,10.38-9.02,1.02-.49,2.14-.57,3.14-1.2.15,1.15-.04,2.04-.21,3.07l-.57,3.36c-.46,2.71-1.88,5.04-2.85,7.55-.44,1.13-1.01,2-1.63,2.99-1.3,2.08-2.53,4.08-4.16,5.96-1.13,1.31-2.15,2.56-3.44,3.72-1.14,1.03-2.08,2.29-3.44,3.04-1.1,1.15-2.27,2.01-3.94,3.01Z"/>
  <path class="cls-11" d="M445.24,128.16c-.99-1.27-2.22-1.96-3.87-2.17-2.35-.29-4.63-.31-6.99.03-1.41.2-2.43.66-3.42,1.71-1.06,1.13-1.72,2.79-.72,4.25.47.68,1.28,1.46,2.04,1.88,3.09,1.7,9.32,1.73,12.27-.69,1.69-1.39,1.98-3.35.69-5.01ZM441.38,132.79c-3.38,1.68-7.83.32-8.41-1.39-.27-.79-.39-1.61.11-2.31,2.2-3.04,8.14-2.79,9.76.22.72,1.34-.04,2.78-1.46,3.48Z"/>
  <path class="cls-15" d="M272.44,78.25c-.55-.19-1.07.2-1.75-.14.75-.53,1.16-1.02.98-1.72.05,0,.25-.1.24-.17-.03-.13-.4-.19-.63-.34-.02-.28.55-.71.85-.79.41-.11.92.14,1.24.58-.8.63-1.61.63-1.37,1,.45.72,1.28-.97,2.35.09l-2.7.93c.39.23.83.19.79.55Z"/>
  <path class="cls-10" d="M306.42,59.31l-.18-.42c.4,0,.81-.18,1.2.06.32.2.51.87-.03,1.04l-1-.68Z"/>
  <path class="cls-8" d="M307.48,39.68c-.09.41.11.78.6,1.09.03.3-.2.48-.67.56-.62.78-1.44,1.38-2.07,2.35l1.61.93c-.55.14-.93.11-.87.47.03.21-.14.8.13.93.63.31,1.58.22,2.26.28.13-.31.21-.58.44-.51.39.13.76.32.49.65-.2.24-.29.44-.18.66.05.11.27.27.27.45-1.69.59-2.08-.92-3.26-.03.9.43,1.79.4,2.49.99.37.31.01.81-.17,1.06-.27.35-.7.13-1.13.06-.61-.1-1.1.51-1.72.3-.17-.41.14-.45.33-.53.2-.09.42.07.61.02,1.11-.28-2.43-1.16-2.26-.76.4.23.1.93.29,1.22,1.5.52,2.91.41,4.21.71-.89.49-1.77.8-2.86,1.01l3.19,1.24c-1.25,1.31-1.96-.59-2.16,1.07-.04.33.44.39.7.57-.18.28-.37.12-.44.19s-.13.24-.07.28l.36.24c.21.14.64.42.54.63-.11.22-.46.24-.65.39l1.41.92-1.68-.55c-1.43.75-2.43.03-2.6.74-.06.24,1.05,1.6,1.65,1.59.45.02.57.16.18.42-.86.04-1.67-.56-2.6-.06.56.51,1.43.31,1.76.93.25.46-.57.43-1.03.74.77.37,1.65-.04,2.5.59-2.6.28-2.01-.41-3.75-.37.22.58.87.69,1.48.94-.14.11-.47.26-.4.46.06.17.28.26.53.42l-.73,1.36c.08.14.46.45.16.54-.39.13-.66-.23-1.05-.05.24.85.81,1.4,1.49,1.5l.25.72v.22c-.22.53-.51.75-.86.66.08.75-.36,1.01-1.33.78-.52-.08-1.31-.21-1.65-.75-.21-.35.64-.41.65-.62-.22-.55-1.02-.57-1.51-.61.29-.69.91-1.7.41-2.12l-1.04-.86c.69-.5,1.32-.1,2.03.15.08-1.04-1.42-.71-1.8-1.12-.36-.63-.13-1.66-.77-2.33-.36-.38.52-.94.64-1.29.26-.72-.09-1.77-.74-2.3.19-.14.5.03.71-.31-.68-.08-1.04-.33-1.12-.98-.04-.31.4-.45.89-.7-.27-.63-.91-.57-1-1.18.45,0,1.24.32,1.2-.24-.03-.39-.41-.62-.38-.9.01-.16.38-.4.36-.6-.16-1.79-4.09-3.23-2.91-4.03.35.49,1.81.64,1.81-.07s-1.36-.87-1.96-.87c.26-.89,1.09-.47,1.8-.51-.33-.46-.94-.51-1.53-.83.9-1.02-.59-.86-.5-2.41-.01.22,1.37-1.54,1.67-1.16-.17-.32-.45-.29-.69-.56.29-.2.7-.39.67-.73-.06-.75-1.3-1.14-1.49-1.71-.16-.47.06-.79.33-1.17.13-.18-.35-.42-.22-.51.24-.16.6-.14.98-.19-.04-.22-.34-.41-.25-.51l.45-.52c.29-.33-.07-.95.65-1.11-.19-.31-.43-.44-.52-.94.95-.3,1.52-1.05,1.75-1.98.66-.16,1.21.05,1.78-.38l-1.58-.16c.27-.48.77-.52,1.16-.52,2.11,0,.26-1.51,4.81-.72.12-.49-.4-.09-.69-.37,1.17-.55,2.47-.24,3.82-.39.99-.11,2.02-.58,2.92,0,.25.16.73.55.62.79s-.43.44-.6.55c-.22.15-.5-.26-.96-.05.56.21.45.46-.05.41-.43.48-1.28.4-1.65.73-.2.18-.6.69-.63.97l-.13,1.03c-.07.52-2.84.87-3.02,1.23-.26.52,1.91-.09,1.61.23-.35.19-.86.27-.67.57.88.28,1.93.74,2.05,1.61-.62.27-1.44.59-1.75,1.23.33.25.58.49.65.81Z"/>
  <path class="cls-13" d="M305.04,67.25c-.36.46-.06,1.64-.46,1.85-.73.39-1-.3-1.73-.41l1.02-.47c-.32-.37-.59-.21-.83-.29-.17-.05-.1-.61.06-.6.75.05,1.37.24,1.94-.08Z"/>
  <path class="cls-19" d="M307.48,39.68c.27.26.83.16,1.09.55.23.33-.08.73-.28.9-.24.21-.58.22-.89.2.1-.12.19-.19.51-.39-.57.13-.69-.52-1.12-.63l-2-.53c1-.54,1.11.48,2.68-.1Z"/>
  <path class="cls-13" d="M304.79,66.3c.31.04.25.51.25.72l-3.61-.84c1.49-.81,2.74.95,3.36.11Z"/>
  <path class="cls-20" d="M303.68,69.56c.28-.14.56-.06.62.23.03.18.34.44.08.55-.3.12-.61.08-.76-.06s-.23-.56.07-.71Z"/>
  <path class="cls-8" d="M256.81,60.78c-.38.45-.46.87-.23,1.26.98.46.36,1.15-.44,1.38l-.31.49c.01.12-.04.37.14.41.14.03.29-.24.45-.29.49-.13.9.16,1.31.13,1.08-.35,1.74-.3,1.31,1.06.45.49,1.09.76,1.93.82l.1.33c.19.66-.1,1.33-.09,2.02,0,.21.51.27.6.14.11-.14.12-.43.35-.81,1.4,1.3.24,1.32.86,1.56.54.21,2.18-.26,2.43-1.51.47.54.82.79,1.47.85-.2.58-.63.44-1.04.68.36.37.94,0,1.35.3.33.25-.15.62-.37.78-.57.13-1.14.54-.45.75.53-.19,1.06-.45,1.64-.81.37.03.67.2.2.32-.25.63-.61,1.07-1.21,1.39,1.2.17,1.83-.66,2.96-.71-.15.72-1.11.6-1.04,1.25.34.23.4.32.16.28,1.13.17,2.41.63,1.51,1.84-.42,0-1.19.3-1.28.94.57.36,1.09.15,1.85.36l-1.03.63c.71.15,1.18-.18,1.72-.21l.47.69c-.78.44-.68.83.3,1.16.13.04.28-.02.41.02.57-.26.79.03.66.87-.46.29-.58.36-.35.21.2.56.69.67,1.45.31.33.28.71.48,1.13.59.93.41-1.03.55-1.14,1.16.61-.08,1.04-.23,1.62.18-4.14,1.43-1.51-.17-4.09.56-.44-.37-.5-1.19-.98-1.18l-1.46.03c.35-.66.97-.65,1.51-.98-.79-.42-1.47.33-2.2.3-.52-.03-.99-.83-1.71-.73-.3.04-.58-.27-.61-.47-.03-.17-.02-.34.08-.68-1.07-.17-2.03-.66-3.12-1.05-.2-.07-.1-.69-.31-.73-.34-.07-.64-.1-1-.12-.11-.43.32-.22.71-.51-.59-.09-.84-.39-1.23-.85-1.01-.76-3.99.22-4.35-.47.33-.33.72-.26.99-.37.19-.08.41-.56.14-.74-.65-.46-1.36.36-1.96.29-.33-.04-.15-.41-.02-.48.23-.11.47-.05.65-.28-.48-.21-.68.15-1.07.13-.21-.01-.32-.43-.58-.5-.54-.14-1.04-.02-1.71-.27.1-.42.33-.87.36-1.27-.16-.1-.58-.08-.7-.22-.09-.11.14-.52-.04-.64-1.03-.68-1.28.76-3.11-1.01.43-.56-.12-1.07-.34-1.39-1.41-2.09.06.05-.76-3.07.17-1.34,2.04-1.96,2.77-2.77.98-1.09,1.66-1.76,3.08-2.29.83-.31,1.53-1.63,2.79-.8-.45.5-.6,1.36-1.14,1.78Z"/>
  <path class="cls-18" d="M270.41,74.68c-.08-.25-.09-.53-.03-.86-.33-.07-.67.2-.88-.08,1.59-.78-1.57-.34-.75-1.17,1.96.8,2.08-.68,2.32.96.42-.03.37-.41.61-.74l.78,1.01-1.62.39c-.02.18.02.43-.08.45-.12.03-.26.05-.33.05Z"/>
  <path class="cls-15" d="M275.75,80.24c-.41,0-.64.29-.95-.1-.4-.52-1.77.17-2.14-.7-.07-.16.49-.49.5-.67.02-.24.02-.47-.32-.51.52-.23,1.09-.43,1.75-.26-.26.58-.79.34-1.03.69.26.24.52.47.4.63-.14.18-.4.06-.68.34.52.24,1.01,0,1.43-.32.29.52.91.45,1.02.9Z"/>
  <path class="cls-4" d="M266.64,70.37l-.49.37c-.16.12-.23.26.04.38-.51.18-.99.92-1.68.81-.39-.06-.72-.47-1.25-.41.26-.34,3.02-1.38,3.39-1.15Z"/>
  <path class="cls-22" d="M261.08,66.36c-2.11-.09-.47-.64-2.31-.54.13-.52.3-1.01.14-1.65-.45-.05-.83-.04-1.18-.01.29-.33,1.45-.47,1.66-.05.18.37-.5,1.11-.09,1.36s2.64-.13,2.2.65c-.08.13-.28.18-.42.24Z"/>
  <path class="cls-22" d="M255.83,63.9c-.13-1.07.55-.43,1.21-1.35-.61-.18-.73-.48-.77-.92-.04-.51.21-.61.54-.86.11.3-.36.78-.17,1.04s.69.17.66.52c-.03.28-.09.51-.51.73.22.17.56-.05.75.32-.74.02-1.29.08-1.71.52Z"/>
  <path class="cls-4" d="M266.14,71.94s-1.54,1.49-1.83.56c.77-.24,1.65-1.01,1.83-.56Z"/>
  <path class="cls-16" d="M325.76,77.88c-.01.32-.85.89-1.05.69-.63-.62.77-1.12.48-1.94.25.02.47.26.45.35l-.1.45c-.03.16.23.32.23.45Z"/>
  <path class="cls-8" d="M328.72,77c-.53-.04-1.09.03-1.67.22-.22-.06-.29-.27-.23-.64-.23-.17-.48-.17-.92-.26.16-.22.28-.41.28-.64l.42-.55c.58.29,1,.23,1.26-.2-.14-1.69,1.39-.63,2.79-1.77.19-.15.08-.71.25-.79.27-.13.55.02.73.14.2.12.27.39.3.87.94.01.64-1.18.67-1.67,2.96-.71,1.4-2.7,4.97-1.83,1.31-.58,1.9-1.4,2.88-1.88.42-.21.55-.99,1.37-.76.3.08.81.11,1.11-.07.21-.12.23-.52.55-.94.46.14.49.57.94.85.59-.92,1.49-.71,2.28-.9.64-.4,1.14-1.38,1.61-1.97l1.54-1.93c.4.6.44.95.79,1.07.41.13.8.09,1.06-.17.38-.37,0-.75,0-1.24,0-.23.64-.32.87-.1.17.17.27.48.56.83.29-.4.06-.88.27-1.34.44-.15,1.24-.02,1.4-.45.76-2.12,3.59.09,4.32-1.38,2.88.74,1.41-3.03,4.51-2,.14-.1.29-.45.4-.53.21-.16.44.2.69.38.85-.6,2.27-.3,3.24-.65.65-.24.76-.59,1.69-.51l3.06.25.36.51c.07.1.45-.1.54-.33.05-.14-.33-.32-.32-.76.84-.2,1.32.88,2.14.94,1.18.08,1.89.71,2.2,1.85.96-1.01,1.75,1.05,2.67,1.56.55.31,1.17.48,1.28,1.05.1.52.11,1.4-.44,1.66-.15.07-.26-.38-.32-.46-.1-.13-.28,0-.5.18l-.38-.62-.46.37c-.2.16-.44-.31-.62-.28-1.22.23-.55-.61-3.25-.5-.64.02-1.1.97-1.89.54l-.82-1.36c-.53.69-1.2.45-1.93-.06-.38.64.32.83.54,1.37-1.68-.4-.06,1.08-1.9,1.63-.73.22-1.93-.35-2.76-.21-.41,1.68-1.92.25-1.78,1.75-1.85.21-3.34-.16-5.15-.35-.11.41-.03.65.09.8.21.28.55.1.85.34-1.11.46-3.26.21-3.42.98,0,.42.62,1.23,1.01,1.32.2.04.56-.17.65-.05.12.16.18.37.16.5-.04.25-.37.43-.67.32-1.06-.37-1.07.75-1.93.41-.6-.24.04-1.37-.41-1.69-.16-.11-.49-.19-.92-.21.15.62.51,1.37.11,2.07-.13.23-1.75.48-1.93.1-.35-.73.84-.29-.33-2.75-.27.54-.84.64-1.55.79-.13,1.24,1.76,2.23,1.59,3.29-1.68-1.39-1.61-.09-3-1.47-.21.87,0,1.62-.06,2.47-.6.36-.86-.65-1.31-.78-1.14-.31-2.43.72-3.04,1.65-.2.09-.63-.33-.77-.25-.18.1-.26.45-.49.66-.15-.2-.18-.42-.26-.65-.07-.2-.52.07-.64-.04-.44-.43-.51-.95-1.07-.94-1.03.01-1.81.8-1.96,1.17-.12.31.27.45.49.7s.21.58.02.77c-.1.1-1.21.99-1.48.39-.13-.28.36-.11.48-.28.54-.77-.03-2.04-.95-2.22-.12.56-.06,1.08-.44,1.42-.28.25-.78.15-1.29.05-.05.6.24,1.01.36,1.51-1.67-.48-.56-2.13-1.59-2.31-.28-.05-.3.92-.44,1.09-.06.08-.31-.07-.46.02-.6.34-.49,1.05-.8,1.73-.22-.27-.2-.6-.47-.86-.61.22-1.13.16-1.58-.12-.1.36.1.6.04.71-.08.12-.45.17-.51.06-.07-.11-.16-.36-.31-.65-.86.24-1.19,1.9-2.29,1.53-.08.5-.47.42-.7.53Z"/>
  <path class="cls-16" d="M328.72,77c-.6.29-1.19.8-1.95.64-.19-.04-.51-.45-.5-.62s.47-.26.55-.44c.11.08.31.13.47.24.13.08.52-.18.39-.3l-.29-.27c-.13-.12.14-.4.47-.28.49.18.61.72.87,1.03Z"/>
  <path class="cls-16" d="M327.85,74.93c.02.26-.15.64-.46.73-.17.05-.37-.22-.59-.44-.28.11-.42.34-.63.46,0-.23.02-.51.21-.64.42-.3.91.35,1.47-.11Z"/>
  <path class="cls-5" d="M351.13,69.32c-.67.27-1.03-1-.83-1.34.68-.06,1.3,1.15.83,1.34Z"/>
  <path class="cls-3" d="M329.34,75.36c.53-.79.4.05.42.24.03.41-.67.43-.72.11-.07-.49-.35-.8-.2-1.27.48.22.33.64.5.92Z"/>
  <path class="cls-3" d="M346.15,67.69c-.42.32-.64-.21-.66-.39-.02-.17-.15-.51.18-.61.29,0,.83.73.47,1.01Z"/>
  <rect class="cls-17" x="339.11" y="122.46" width="2.88" height="1.92"/>
  <rect class="cls-21" x="339.35" y="122.7" width="2.4" height="1.44"/>
</svg>