<?xml version="1.0" encoding="UTF-8"?>
<svg id="Calque_1" xmlns="http://www.w3.org/2000/svg" version="1.1" xmlns:xlink="http://www.w3.org/1999/xlink" viewBox="0 0 557.46 153.2">
  <!-- Generator: Adobe Illustrator 30.0.0, SVG Export Plug-In . SVG Version: 2.1.1 Build 123)  -->
  <defs>
    <style>
      .st0 {
        fill: #23201b;
      }

      .st1 {
        fill: #201c17;
      }

      .st2 {
        fill: #fcfcfc;
      }

      .st3 {
        fill: #fff;
      }

      .st4 {
        fill: #f7e5aa;
      }

      .st5 {
        fill: #f9f1d7;
      }

      .st6 {
        fill: #004d86;
      }

      .st7 {
        font-family: Dubai-Bold, Dubai;
        font-size: 35.54px;
        font-weight: 700;
        stroke: #d41116;
        stroke-miterlimit: 10;
      }

      .st8 {
        fill: #23201c;
      }

      .st9 {
        fill: #f8cc48;
      }

      .st10 {
        fill: #211d19;
      }

      .st11 {
        fill: #f5cb3b;
      }

      .st12 {
        fill: #221e1a;
      }

      .st13 {
        fill: #201d18;
      }

      .st14 {
        fill: #f6e7ab;
      }

      .st15 {
        fill: #211e1a;
      }

      .st16 {
        fill: #f5e197;
      }

      .st17 {
        fill: #f6e8b6;
      }

      .st18 {
        fill: #6b6968;
      }

      .st19 {
        fill: #f8e6a7;
      }

      .st20 {
        fill: #f6e5a6;
      }

      .st21 {
        fill: #f4d564;
      }

      .st22 {
        fill: #211d18;
      }

      .st23 {
        fill: #d41116;
      }

      .st24 {
        fill: #f6e4a5;
      }

      .st25 {
        fill: #24201c;
      }
    </style>
    <path id="path" d="M385.16,148.69c29.68-1.23,46.77-3.52,59.47-5.55,16.14-2.59,37.01-8.99,51.5-16.38,18-9.17,19.53-9.57,31.76-21.51,9.09-8.89,10.45-21.99,18.37-34.77"/>
  </defs>
  <path class="st10" d="M240.36,114.75c-.83.09-1.59.05-2.38,0l-.03-4.78c0-.78-.36-1.45-1.15-1.68-2.16-.62-5.29.26-5.31,2.09l-.03,4.38c-.84.05-1.53.08-2.28-.03v-7.43c.72-.21,1.41-.08,2.1-.04.09.32.09.52.23.85,1.7-1.35,5.65-1.24,7.75-.59.22.07.36.44.54.51.15.06,3.23-1.89,8.17-.51.6.17,1.13.88,1.13,1.44l.02,5.78c-.82.11-1.51,0-2.31,0l-.05-4.98c-.03-2.2-3.75-1.81-4.95-1.31-.55.23-1.33.65-1.4,1.29-.18,1.68,0,3.23-.08,5.01h.02Z"/>
  <path class="st10" d="M407.05,114.77l-.06-5.21c-.03-2.26-6.95-1.81-7.01.62l-.12,4.49c-.81.16-1.57.26-2.3,0l.03-7.4c.77-.1,1.4-.08,2.08-.03.12.35.05.62.26.93,1.43-1.46,6.13-1.23,7.91-.7,1.01.3,1.57,1.29,1.57,2.3,0,1.71.06,3.29-.03,4.96-.79.09-1.43.11-2.33.04v-.02Z"/>
  <path class="st13" d="M391.71,114.76l-.03-5.21c0-2.35-6.83-1.76-6.89.64l-.12,4.59-2.25-.03-.03-7.49c.66-.09,1.34-.14,1.99.03.26.07.18.66.26.83l1.2-.63c.15-.09,8.44-1.87,8.4,2.29l-.03,4.97c-.82.07-1.52.09-2.5.03h0Z"/>
  <path class="st10" d="M364.63,107.23c-1.51,2.33-2.94,4.14-4.44,6.21-2.14,2.95-2.77,4.97-7.32,4.24-.14-.5-.1-.87,0-1.33,1.72.62,3.34,0,4.1-1.69-.45-.93-1.1-1.67-1.8-2.37-.54-.54-.77-1.26-1.22-1.83-.83-1.05-1.71-1.92-2.42-3.19.9-.1,1.69-.08,2.62-.03.7,1.27,1.63,2.29,2.43,3.49.53.79.79,1.76,1.65,2.38.78-.49,1.04-1.51,1.56-2.29l2.36-3.56c.88-.1,1.68-.03,2.48-.02v-.02Z"/>
  <path class="st12" d="M283.97,107.41c.54-.49,1.6-.16,2.37-.08l-3.27,4.83c-.55.82-1.14,1.56-1.6,2.46-.57.26-2.05.36-2.61.03-1.34-1.36-2.75-4.09-3.78-5.2-.57-.61-1-1.34-1.32-2.19l2.56-.06c.53,1.22,1.22,2.23,2.02,3.26.86,1.11.98,2.23,1.8,2.74,1.28-1.28,2.66-4.72,3.83-5.8h0Z"/>
  <rect class="st1" x="300.79" y="104.34" width="2.54" height="10.5"/>
  <path class="st8" d="M297.26,114.64c-.77.32-1.54.17-2.41.09v-10.33c.84-.08,1.52-.09,2.37,0l.04,10.24Z"/>
  <path class="st10" d="M336.39,108.24c-.91.2-2.07.08-3.02.51-2.78,1.25-1.75,3.29-1.98,5.98-.72.12-1.52.14-2.3-.02v-7.48l2.07-.03.24,1.35c1.32-1.27,2.98-1.57,4.93-1.46.29.02.33,1.06.05,1.17h.02Z"/>
  <rect class="st0" x="288.7" y="107.2" width="2.39" height="7.58"/>
  <path class="st25" d="M437.69,111.15c-.12.68-.14,1.05-.72,1-.68-.04-.68-.36-.77-.97-.35-2.26-.84-4.4-.57-6.76.79-.19,1.68-.09,2.57-.05.25,2.26-.09,4.43-.51,6.78Z"/>
  <path class="st15" d="M438.53,114.74c-1.07.08-2.03.11-3.06.02-.15-.58-.14-1.1-.03-1.73,1-.12,1.93-.03,3.04-.04.16.55.08,1.04.06,1.75Z"/>
  <path class="st12" d="M350.73,113.74c-.31-.14-1.19.1-1.28-.33-.37-1.92.47-5.57-1.03-5.89-2.03-.44-10.73-1.35-10.26,2,.72-.03,1.72.29,2.26-.1.42-.4.57-1.07,1.34-1.16,1.18-.13,4.4-.56,5.1.66,1.06,1.88-4.38.7-8.06,2.14-.73.29-1.33,1.11-1.23,1.85.37,2.72,6.36,2.26,8.66,1.33.28-.11.45-.39.75-.35.37.06.32,1.67,3.81.83.18-.2.19-.87-.07-.99v.02ZM346.06,113.06c-1.32.72-5.46,1.14-5.91-.28-.2-.64.77-1.16,1.33-1.23l5.36-.63c.38,1.05.04,1.69-.77,2.14h0Z"/>
  <path class="st10" d="M265,113.7c-.37-.09-1.17.14-1.25-.26-.43-2.05.5-5.64-1.17-5.97-1.93-.38-10.68-1.29-10.06,2.03,2.31.11,1.92.37,2.86-.95,1.59-.62,3.41-.64,5.05-.21.54.14,1.24,1.1.67,1.4-1.73.89-9.22-.09-9.22,3.01s7.56,2.48,9.49,1.11c.43,1.49,3.23,1.12,3.69.88.24-.13.2-.97-.05-1.03h0ZM260.31,113.1c-1.39.7-5.51,1.09-5.86-.36-.16-.66.86-1.14,1.43-1.2l5.29-.6c.36,1.06,0,1.73-.86,2.16h0Z"/>
  <path class="st12" d="M313.38,113.71c-4.77.14-5.22-2.29-4.55-2.3l10.43-.09c-.22-5.01-7.24-4.66-10.46-3.69-1.16.35-2.15,1.29-2.6,2.28-1,2.21,1.37,4.05,3.06,4.56,2.74.83,7.98.94,9.66-2.01-3.3-.64-2.24,1.16-5.55,1.25h0ZM316.62,110.08l-7.91.02c.09-2.49,7.1-2.83,7.91-.02Z"/>
  <path class="st15" d="M424.33,108.97c-.77-1.08-1.76-1.56-3.05-1.72-3.12-.4-7.76-.57-9.08,2.91-.42,1.09.16,2.33,1.06,3.18,2.23,2.08,7.58,2.01,10.03.73.66-.35,1.12-.97,1.53-1.63-3.5-.6-2.33,1.49-5.94,1.26-1.57-.09-4.15-.31-4.31-2.31l10.55-.06c.2-1.05-.34-1.7-.81-2.37h.02ZM414.68,110.11c.49-1.4,1.88-1.9,3.3-2,1.73-.08,3.57.09,4.66,1.91l-7.96.09Z"/>
  <path class="st6" d="M474.19,88.45l-14.93,1.73-2.26.23c-4.08.41-7.95.73-12.06.86-4.98.15-9.8.48-14.71-.31-2.42-.38-4.5-1.57-6.76-2.35-.97-.34-1.86-.67-2.7-1.22-.56-.36-1.29-.49-1.82-.88-.66-.48-1.35-.53-2.06-.83-2.03-.88-3.89-1.9-6.04-2.49-3.4-.94-6.57-2.18-10.16-2.46-7.89-.61-15.69-.93-23.55-.12l-6.84.7c1.36-.94,2.14-2.03,3.2-2.91,1-.83,1.8-1.73,2.72-2.63l2.66-2.64,2.64-2.67c.87-.88,1.64-1.72,2.49-2.65l2.55-2.76,2.72-3.14c.94-1.08,1.8-2.15,2.69-3.27l1.91-2.38,2.19-3.08c1.28-1.8,2.28-3.75,3.29-5.72.37-.71.44-1.57.69-2.38.43-1.37.66-3.07-.11-4.32-.7-1.12-4.01-.42-5.23-.13-2.16.52-4.07,1.54-6.1,2.39-.69.29-1.37.48-2.04.83l-2.45,1.28c-.68.36-1.33.54-1.98.91-2.08,1.16-4.13,2.3-6.1,3.63-.94.64-1.72,1.3-2.73,1.84-.77.41-1.39,1.21-2.16,1.67-1.22.72-5.72,4.44-6.9,5.52l-2.77,2.55c-1.53,1.42-6.72,6.88-7.59,8.41-.32.57-.97,1.04-1.36,1.63-.77,1.17-1.41,2.38-2.26,3.47-.65.83-1.06,1.68-1.51,2.64-.89,1.9-2.03,3.64-2.64,5.66-1.54,5.1-.72,4.52-3.48,5.7-2.83,1.22-5.71,2.22-8.84,2.34-7.68.3-10.27.03-17.54-2.23-1.87-.58-3.74-1.42-4.6-3.34-.74-1.66,2.32-4.46,2.74-4.71,3.46-1.97,6.73-2.94,10.78-2.76,1.61.07,4.72,3.92,8.79.25.59-.53,1.13-.93,1.07-1.76-.06-.78-.54-1.18-1.26-1.58-1.12-.62-2.23-1.07-3.52-1.38-6.89-1.64-19.64-1.32-26.42.9l-2.51.83c-2.7.89-6.1,3.7-4.87,7.22.79,2.26,2.19,4.21,4.03,5.74l3.46,2.86c-3.74.31-7.19.11-10.84.06-4.21-.05-9.24-.78-12.91-2.93-1.17-.68-2.21-2.05-2.67-3.35-.6-1.71-.31-3.52.02-5.24.31-1.67-.55-3.06-2.31-3.34-2.62-.42-5.28.07-7.87.69-1,.24-1.75.49-2.43,1.31-2.76,3.35-6.36,7.21-10.44,8.96-2.89,1.23-8.44.72-8.2-1.65.09-.84.46-1.88,1.12-2.44.97-.83,2-1.75,3.18-2.26,6.78-2.95,6.49-1.46,11.1-2.98.7-.23,1.29-.26,1.86-.86.37-.4.79-.9.65-1.49-.11-.44-.6-.82-1.12-1.02-3.66-1.44-11.85-.03-15.93.65-2.22.37-4.03,1.56-5.98,2.53-1.13.56-1.84,1.38-2.77,2.2-.97.85-1.75,1.61-2.4,2.75-1.04,1.8-2.6,3.74-2.02,6.08l-9.08,2.38-4.38,1.12c-.65-.52-1.51-.99-2.23-1.46-.73-.48-1.27-1.21-2.1-1.62.2-.59.8-.53,1.18-.86,1.03-.88,2.03-1.76,2.85-2.83.26-.33.24-.88.42-1.23,1.06-2.1.02-5.36-1.31-6.83-.66-.72-1.31-1.56-2-2.18-2.38-2.12-5.1-2.78-8.2-2.8-3.92-.03-7.8.7-10.9,3.22-.54.43-1.01,1.45-.64,2.08,1.24,2.07,5.89,1.75,8.07,1.67,1.3-.04,2.59,1.44,2.63,2.22.04.77-.28,1.31-.74,1.93-2.04,2.78-1.65,1.57-4.5,3.86v4.05l4.14,2.38c.87.5,1.76.95,2.5,1.76-1.7.7-3.35.83-5,1.26-2.99.79-4.81,1.63-8.04,2.53-2.17.6-4.08,1.55-6.14,2.24-1.18.4-2.35.67-3.52,1.23-1.75.83-3.52,1.34-5.29,2.09l-5.45,2.31-5.96,2.59c-2.3,1-12.22,5.64-13.8,6.65l-2.61,1.68c-1.56,1-4.37,3.75-5.63,5.37-.42.54-.61,1.29-.89,1.92-.72,1.64.2,3.3,1.88,3.88,2.78.95,5.64.96,8.63.97,4.54.02,8.79-.91,13.27-1.63,3.43-.55,6.56-1.68,9.89-2.56,1.92-.51,7.17-2.17,8.9-2.85l6.64-2.63c.92-.37,1.75-.64,2.65-1.06,1.1-.52,2.19-1.08,3.31-1.54.77-.31,1.43-.56,2.17-.94l3.1-1.64c.8-.43,1.51-.69,2.31-1.17l2.5-1.54c.61-.37,1.37-.66,1.97-1.14l2.71-2.16,2.6-2.71c.7-.73,1.09-1.73,1.72-2.56,1.92-2.56,2.09-7.01.94-9.96,3.31-.89,5.31-1.99,8.54-3.02.98-.31,2.04-.43,2.91-.98.71-.44,1.06.03,1.57.39,4,2.86,9.29,3.18,14.03,3.33,5.1.15,9.86-.89,14.49-2.84,1.06-.44,2.02-.88,2.97-1.56.24-.16.89.33,1.08.55.49.57,1.37.8,2,1.12,2.41,1.21,4.75,2.22,7.38,2.83,4.26.98,8.32,1.85,12.72,2.09,7.81.43,15.36-.25,23.05-1.09,7.7,2.13,16.44,2.24,24.36,1.59,4.19-.34,8.13-1.34,12.16-2.52.88-.26,1.7-.38,2.58-.72,1.86-.72,3.63-1.56,5.52-2.25l5.69-2.09c.99-.36,1.93-.5,2.93-.78,3.91-1.09,7.68-2.15,11.76-2.49,6.29-.54,12.39-.95,18.66-.49,4.5.33,6.53,1.97,10.4,3.35,1.89.68,3.58,1.78,5.54,2.32,1.14.31,2.18.68,3.3,1.06,3.68,1.23,7.41,1.63,11.33,1.8,5.87.24,11.58.25,17.45,0,6.79-.28,13.25-1.48,19.92-2.69,3.22-.58,6.15-1.45,9.27-2.47.43.03.41-.2-.03-.28l.04.04ZM211.19,102.36c-1,1.85-2.09,3.57-3.63,4.99-1.23,1.14-2.33,2.25-3.75,3.17-.89.58-1.71,1.35-2.64,1.84-1.75.92-3.61,2.08-5.2,2.74l-2.76,1.16c-1,.42-1.97.93-2.99,1.28-2,.67-3.92,1.32-5.87,2.17-1.17.51-2.32.79-3.52,1.16-2.54.77-4.9,1.85-7.48,2.44l-4.21.97c-1.58.37-11.81,2.69-10.04-1.29.57-1.29,1.69-1.96,2.6-2.92,1.43-1.51,3.28-2.41,4.89-3.68.72-.56,1.46-.83,2.23-1.29l3.02-1.82c.54-.33,1.06-.54,1.65-.79,1.31-.57,2.55-1.28,3.8-1.94.6-.31,1.16-.42,1.77-.7l3.63-1.67c.8-.37,1.55-.58,2.38-.9l6.55-2.58,6.76-2.66,6.42-2.52c.84-.33,1.67-.46,2.51-.84.83-.38,3.91-1.6,4.58-1.31,1.04.43,0,3.71-.71,5.02v-.03ZM367.9,72.77c-.85.65-1.54,1.46-2.73,1.88.43-1.59,2.81-5.36,3.83-6.92l1.62-2.46,2.62-3.3c1.83-2.31,6-6.21,8.37-7.94.81-.6,1.7-.95,2.44-1.68.44-.43,1.11-.66,1.63-.93-.38,1.01-1.14,1.57-1.61,2.38-.74,1.27-1.68,2.32-2.55,3.53-1.98,2.73-5.86,7.77-8.18,10.1-.94.94-1.52,2.22-2.83,2.82-.59,1.14-1.63,1.78-2.6,2.53Z"/>
  <path class="st6" d="M49.71,83.51c.88-.72,1.63-1.53,2.53-2.26l1.77-1.43c-.41.33,5.19-5.08,5.27-5.15l2.74-2.78c.76-.77,1.28-1.69,2.26-2.27.68-.41.89-1.44,1.53-1.89,1.05-.73,1.62-1.84,2.48-2.67,1.03-1,1.83-2.03,2.75-3.12l4.58-5.46c.94-1.12,1.74-2.27,2.77-3.35.45-.48.6-1.25,1.16-1.7.91-.73,1.35-1.79,2.06-2.66l1.29-1.57c.96-1.17,1.62-2.55,2.65-3.66.34-.37,3.6-5.29,4.14-6.11l1.94-2.95c.57-.86.82-1.79,1.4-2.67,1.09-1.63,1.56-3.09,2.38-5.01l1.46-3.42,1.35-5.8c.89-3.79,1-7.7.23-11.59-5.26.36-10.19,1.5-15.31,2.41-2.93.52-5.55,1.45-8.37,2.3-2.15.65-4.25,1.16-6.28,2.15-.94.45-1.92.62-2.83,1.06l-5.24,2.47c-2.89,1.35-3.29,1.92-5.31,2.88-1.28.6-2.26,1.77-3.59,2.29-2.91,1.12-6.25,1.76-9.2.6-.89-.36-1.43-.73-1.72-1.52-.94-2.58,3.09-3.96,5.46-5.75.77-.59,1.53-.9,2.38-1.33,2.26-1.12,2.3-1.49,5.12-2.62,1.17-.48,2.32-1.08,3.46-1.63.87-.42,1.69-.62,2.59-.96l5.42-2.03c.73-.27,1.42-.36,2.18-.56,3.58-.98,6.95-2.13,10.64-2.77,5.9-1.03,11.56-2.43,17.54-2.62l3.99-.13c3.02-.09,8.58-.72,10.67,1.17.66.6.61,1.36.73,2.2.62,4.27.79,8.48.29,12.77l-.49,4.1c-.34,2.91-1.59,5.52-2.38,8.32-.54,1.92-1.42,3.57-2.2,5.38s-1.6,3.58-2.69,5.32c-.71,1.12-1.08,2.4-1.92,3.44-.7.87-1.17,1.8-1.74,2.75-.6,1.01-1.3,1.92-2.03,2.86-.65.83-1.02,1.92-1.83,2.61-.68.59-.97,1.37-1.5,2.02l-2.77,3.38c-5.48,6.71-11.6,12.69-18.17,18.34-1.12.96-2.15,1.75-3.2,2.76-.67.64-1.73.98-2.27,1.8-.51.76-1.39.94-2.02,1.5-1.12.98-2.25,1.77-3.42,2.66l-2.6,1.95c-1.06.79-2.26,1.31-3.23,2.28-.43.43-1.09.53-1.54.88-1.58,1.24-3.3,2.15-4.99,3.22s-3.2,1.98-4.97,2.83c-1.39.66-2.56,1.61-4.05,2.09s-2.78,1.29-4.2,1.88c-.88.37-1.71.6-2.6.9-2.59.89-5.01,1.95-7.73,2.46-6.89,1.29-11.77,2.21-18.81.18-1.17-.34-2.43-.37-3.48-1.06s-2.05-1.44-3-2.27c-.07-.06-1.75-2.23-1.14-3.29.13-.22.8,0,.97.19.54.6,1.3.74,1.88,1.21,1.32,1.07,2.66,1.97,4.28,2.49,6.32,1.97,9.85,1.41,16.22-.1,2.3-.54,4.25-1.67,6.42-2.5,1.71-.66,3.12-1.63,4.72-2.5l1.84-1,2.7-1.81c.81-.54,1.57-.97,2.34-1.56l4.89-3.71,3.33-2.76.03-.03Z"/>
  <path class="st6" d="M195.8,83.85c-1.09.37-1.8.98-2.55,1.63-.52.44-1.28.6-1.74,1.12-1.1,1.22-4.98,3.59-6.55,4.04-7.11,2.07-14.67-5.24-18.16-10.61l-1.6-2.46c1.03-.44,1.46-1.43,2.28-1.97,1.08-.71,1.72-1.69,2.62-2.42,1.03-.83,1.76-1.75,2.64-2.69.88-.94,1.72-1.78,2.55-2.77l2.33-2.78c1.36-1.63,2.48-3.33,3.6-5.13,1.16-1.86,4.19-7.51,4.38-9.31l.14-1.37c.33-3.29,1.34-10.56-3.29-12.31-1.79-.68-3.73-.16-5.46.51l-1.78.7c-1.15.45-2.04,1.38-3.08,2.02-2.73,1.68-9.18,8.16-10.76,10.97-.45.81-1.11,1.62-1.66,2.36-.48.64-.63,1.23-.97,1.89-1.09,2.16-2.1,4.26-2.56,6.67-.75,3.9-1.29,7.67-.65,11.68l-5.09,3.99c-.83.66-1.86,1.06-2.66,1.83-.14.14-5.4,3.36-5.77,3.55-.77.37-1.52.63-2.27,1.07-1.19.7-2.39,1.34-3.72,1.78-2.52.84-4.85,2.02-7.48,2.49-1.86.34-3.69.56-5.57.77-2.08.22-3.98-.05-5.98-.48-1.74-.37-3.11-1.26-4.47-2.35-.83-.66-2-1.25-2.1-2.4.14-.59,1.17-.54,1.63-.78l4.22-2.28c1.08-.59,2.09-1.05,3.1-1.78,1.57-1.12,3.41-1.81,4.8-3.19.57-.56,1.46-.68,1.99-1.28.84-.94,1.92-1.48,2.82-2.3l3.07-2.82,2.41-2.53c.75-.79,1.23-1.85,2.11-2.55.58-.47.7-1.23,1.08-1.81.9-1.37,1.86-2.69,2.43-4.26,1.1-3.08,2.14-5.98,2.72-9.21,1.6-8.79,2.74-18.09.03-26.79-.33-1.07-.7-2.18-1.55-3-.38-.37-1.09-.98-1.64-1.11-2.17-.51-4.23.27-6.32.81-1.75.45-3.17,1.52-4.66,2.49-.64.42-1.42.58-1.91,1.2-.64.83-1.63,1.26-2.37,1.95l-3,2.83-2.24,2.36-2.77,3.12c-.81.91-1.35,2-2.36,2.76-.5.37-.6,1.17-1.05,1.6-1.02.99-1.73,2.1-2.57,3.23l-2,2.64c-.79,1.05-1.37,2.22-2.38,3.12-.47.42-.49,1.17-.88,1.6-1.28,1.38-2.03,2.97-3.02,4.53-1.83,2.86-3.95,7.27-5.03,10.57-1.97,6.04-2.84,12.28-1.57,18.58-1.72,1.31-3.9,1.61-3.85,3.38.04,1.29,5.28,1.16,6.27,1.14l2.18,2.18c.89.89,2.1,1.37,3,2.27.48.48,1.14.52,1.69.83,2.06,1.18,4.11,2.24,6.44,2.75,8.27,1.79,13.82,1.37,22.1-.05,3.04-.52,5.74-1.6,8.61-2.6,3.44-1.2,3.13-1.28,6.27-2.69,1.09-.49,2.08-1.01,3.13-1.61l4.22-2.36c1.16-.65,2.15-1.49,3.47-2.09,1.22.6,2.07,1.9,3.18,2.79l2.29,1.85c1.67,1.35,3.51,2.48,5.41,3.52,1.06.6,2.26,1,3.35,1.53,7.32,3.57,18.33.75,22.14-6.12.43-.77.66-1.67.31-2.44h.03ZM107.77,76.83l.33-3.66c.3-3.35,1.49-6.46,2.46-9.65.28-.93.44-1.77.84-2.66l2.77-6.23c.63-1.41,1.54-2.61,2.16-4.03.52-1.17,1.48-2.05,2.05-3.17.66-1.29,4.07-5.75,5.17-6.98l2.77-3.1c1.93-2.17,7.07-6.84,9.65-8.45.16,3.7-.11,7.21-.63,10.77l-.63,4.26c-.43,2.95-1.66,5.61-2.49,8.46-.58,1.97-1.64,3.62-2.5,5.43-1.19,2.52-2.12,3.31-2.72,4.43-1.11,2.09-5.64,6.81-7.64,8.21-1.17.82-2.13,1.83-3.45,2.47-1.29.63-2.4,1.59-3.73,2.15-.65.27-1.29.38-1.92.75-.78.46-1.63.61-2.5,1.03v-.02ZM163.53,70.21c-.27-2.39.44-4.63.71-7.04.3-2.71,1.5-5.14,2.5-7.63.31-.79.53-1.42,1-2.15l1.52-2.34c1.89-2.92,5.71-6.18,8.84-7.68.87-.42,1.82-.49,2.67-1.02.13.98-.03,1.74-.18,2.61l-.49,2.86c-.39,2.31-1.6,4.29-2.43,6.43-.37.96-.86,1.7-1.39,2.55-1.11,1.77-2.15,3.47-3.54,5.07-.96,1.12-1.83,2.18-2.93,3.17-.97.88-1.77,1.95-2.93,2.59-.94.98-1.93,1.71-3.35,2.56v.02Z"/>
  <path class="st12" d="M379.01,109.1c-.84-1.08-1.89-1.67-3.29-1.85-2-.25-3.94-.26-5.95.03-1.2.17-2.07.56-2.91,1.46-.9.96-1.46,2.38-.61,3.62.4.58,1.09,1.24,1.74,1.6,2.63,1.45,7.93,1.47,10.45-.59,1.44-1.18,1.69-2.85.59-4.26h0ZM375.73,113.04c-2.88,1.43-6.67.27-7.16-1.18-.23-.67-.33-1.37.09-1.97,1.87-2.59,6.93-2.38,8.31.19.61,1.14-.03,2.37-1.24,2.96Z"/>
  <path class="st16" d="M231.91,66.62c-.47-.16-.91.17-1.49-.12.64-.45.99-.87.83-1.46.04,0,.21-.09.2-.14-.03-.11-.34-.16-.54-.29-.02-.24.47-.6.72-.67.35-.09.78.12,1.06.49-.68.54-1.37.54-1.17.85.38.61,1.09-.83,2,.08l-2.3.79c.33.2.71.16.67.47h0Z"/>
  <path class="st11" d="M260.84,50.49l-.15-.36c.34,0,.69-.15,1.02.05.27.17.43.74-.03.89l-.85-.58h0Z"/>
  <path class="st9" d="M261.74,33.78c-.08.35.09.66.51.93.03.26-.17.41-.57.48-.53.66-1.23,1.17-1.76,2l1.37.79c-.47.12-.79.09-.74.4.03.18-.12.68.11.79.54.26,1.34.19,1.92.24.11-.26.18-.49.37-.43.33.11.65.27.42.55-.17.2-.25.37-.15.56.04.09.23.23.23.38-1.44.5-1.77-.78-2.78-.03.77.37,1.52.34,2.12.84.31.26,0,.69-.14.9-.23.3-.6.11-.96.05-.52-.09-.94.43-1.46.26-.14-.35.12-.38.28-.45.17-.08.36.06.52.02.94-.24-2.07-.99-1.92-.65.34.2.09.79.25,1.04,1.28.44,2.48.35,3.58.6-.76.42-1.51.68-2.43.86l2.72,1.06c-1.06,1.12-1.67-.5-1.84.91-.03.28.37.33.6.49-.15.24-.31.1-.37.16s-.11.2-.06.24l.31.2c.18.12.54.36.46.54-.09.19-.39.2-.55.33l1.2.78-1.43-.47c-1.22.64-2.07.03-2.21.63-.05.2.89,1.36,1.4,1.35.38.02.49.14.15.36-.73.03-1.42-.48-2.21-.05.48.43,1.22.26,1.5.79.21.39-.49.37-.88.63.66.31,1.4-.03,2.13.5-2.21.24-1.71-.35-3.19-.31.19.49.74.59,1.26.8-.12.09-.4.22-.34.39.05.14.24.22.45.36l-.62,1.16c.07.12.39.38.14.46-.33.11-.56-.2-.89-.04.2.72.69,1.19,1.27,1.28l.21.61v.19c-.19.45-.43.64-.73.56.07.64-.31.86-1.13.66-.44-.07-1.12-.18-1.4-.64-.18-.3.54-.35.55-.53-.19-.47-.87-.49-1.29-.52.25-.59.77-1.45.35-1.8l-.89-.73c.59-.43,1.12-.09,1.73.13.07-.89-1.21-.6-1.53-.95-.31-.54-.11-1.41-.66-1.98-.31-.32.44-.8.54-1.1.22-.61-.08-1.51-.63-1.96.16-.12.43.03.6-.26-.58-.07-.89-.28-.95-.83-.03-.26.34-.38.76-.6-.23-.54-.77-.49-.85-1,.38,0,1.06.27,1.02-.2-.03-.33-.35-.53-.32-.77,0-.14.32-.34.31-.51-.14-1.52-3.48-2.75-2.48-3.43.3.42,1.54.54,1.54-.06s-1.16-.74-1.67-.74c.22-.76.93-.4,1.53-.43-.28-.39-.8-.43-1.3-.71.77-.87-.5-.73-.43-2.05,0,.19,1.17-1.31,1.42-.99-.14-.27-.38-.25-.59-.48.25-.17.6-.33.57-.62-.05-.64-1.11-.97-1.27-1.46-.14-.4.05-.67.28-1,.11-.15-.3-.36-.19-.43.2-.14.51-.12.83-.16-.03-.19-.29-.35-.21-.43l.38-.44c.25-.28-.06-.81.55-.94-.16-.26-.37-.37-.44-.8.81-.26,1.29-.89,1.49-1.69.56-.14,1.03.04,1.52-.32l-1.34-.14c.23-.41.66-.44.99-.44,1.8,0,.22-1.29,4.09-.61.1-.42-.34-.08-.59-.31,1-.47,2.1-.2,3.25-.33.84-.09,1.72-.49,2.49,0,.21.14.62.47.53.67s-.37.37-.51.47c-.19.13-.43-.22-.82-.04.48.18.38.39-.04.35-.37.41-1.09.34-1.4.62-.17.15-.51.59-.54.83l-.11.88c-.06.44-2.42.74-2.57,1.05-.22.44,1.63-.08,1.37.2-.3.16-.73.23-.57.49.75.24,1.64.63,1.75,1.37-.53.23-1.23.5-1.49,1.05.28.21.49.42.55.69v-.02Z"/>
  <path class="st14" d="M259.67,57.25c-.31.39-.05,1.4-.39,1.57-.62.33-.85-.26-1.47-.35l.87-.4c-.27-.31-.5-.18-.71-.25-.14-.04-.09-.52.05-.51.64.04,1.17.2,1.65-.07Z"/>
  <path class="st20" d="M261.74,33.78c.23.22.71.14.93.47.2.28-.07.62-.24.77-.2.18-.49.19-.76.17.09-.1.16-.16.43-.33-.49.11-.59-.44-.95-.54l-1.7-.45c.85-.46.94.41,2.28-.09h0Z"/>
  <path class="st14" d="M259.45,56.44c.26.03.21.43.21.61l-3.07-.72c1.27-.69,2.33.81,2.86.09h0Z"/>
  <path class="st21" d="M258.51,59.22c.24-.12.48-.05.53.2.03.15.29.37.07.47-.26.1-.52.07-.65-.05s-.2-.48.06-.6h0Z"/>
  <path class="st9" d="M218.61,51.74c-.32.38-.39.74-.2,1.07.83.39.31.98-.37,1.17l-.26.42c0,.1-.03.31.12.35.12.03.25-.2.38-.25.42-.11.77.14,1.12.11.92-.3,1.48-.26,1.12.9.38.42.93.65,1.64.7l.09.28c.16.56-.09,1.13-.08,1.72,0,.18.43.23.51.12.09-.12.1-.37.3-.69,1.19,1.11.2,1.12.73,1.33.46.18,1.86-.22,2.07-1.29.4.46.7.67,1.25.72-.17.49-.54.37-.89.58.31.31.8,0,1.15.26.28.21-.13.53-.31.66-.49.11-.97.46-.38.64.45-.16.9-.38,1.4-.69.31.03.57.17.17.27-.21.54-.52.91-1.03,1.18,1.02.14,1.56-.56,2.52-.6-.13.61-.94.51-.89,1.06.29.2.34.27.14.24.96.14,2.05.54,1.29,1.57-.36,0-1.01.26-1.09.8.49.31.93.13,1.57.31l-.88.54c.6.13,1-.15,1.46-.18l.4.59c-.66.37-.58.71.26.99.11.03.24-.02.35.02.49-.22.67.03.56.74-.39.25-.49.31-.3.18.17.48.59.57,1.23.26.28.24.6.41.96.5.79.35-.88.47-.97.99.52-.07.89-.2,1.38.15-3.52,1.22-1.29-.14-3.48.48-.37-.31-.43-1.01-.83-1l-1.24.03c.3-.56.83-.55,1.29-.83-.67-.36-1.25.28-1.87.26-.44-.03-.84-.71-1.46-.62-.26.03-.49-.23-.52-.4-.03-.14-.02-.29.07-.58-.91-.14-1.73-.56-2.66-.89-.17-.06-.09-.59-.26-.62-.29-.06-.54-.09-.85-.1-.09-.37.27-.19.6-.43-.5-.08-.72-.33-1.05-.72-.86-.65-3.4.19-3.7-.4.28-.28.61-.22.84-.31.16-.07.35-.48.12-.63-.55-.39-1.16.31-1.67.25-.28-.03-.13-.35-.02-.41.2-.09.4-.04.55-.24-.41-.18-.58.13-.91.11-.18,0-.27-.37-.49-.43-.46-.12-.89-.02-1.46-.23.09-.36.28-.74.31-1.08-.14-.09-.49-.07-.6-.19-.08-.09.12-.44-.03-.54-.88-.58-1.09.65-2.65-.86.37-.48-.1-.91-.29-1.18-1.2-1.78.05.04-.65-2.61.14-1.14,1.74-1.67,2.36-2.36.83-.93,1.41-1.5,2.62-1.95.71-.26,1.3-1.39,2.38-.68-.38.43-.51,1.16-.97,1.52v-.03Z"/>
  <path class="st19" d="M230.19,63.58c-.07-.21-.08-.45-.03-.73-.28-.06-.57.17-.75-.07,1.35-.66-1.34-.29-.64-1,1.67.68,1.77-.58,1.97.82.36-.03.31-.35.52-.63l.66.86-1.38.33c-.02.15.02.37-.07.38-.1.03-.22.04-.28.04h-.02Z"/>
  <path class="st16" d="M234.73,68.31c-.35,0-.54.25-.81-.09-.34-.44-1.51.14-1.82-.6-.06-.14.42-.42.43-.57.02-.2.02-.4-.27-.43.44-.2.93-.37,1.49-.22-.22.49-.67.29-.88.59.22.2.44.4.34.54-.12.15-.34.05-.58.29.44.2.86,0,1.22-.27.25.44.77.38.87.77h.02Z"/>
  <path class="st4" d="M226.98,59.91l-.42.31c-.14.1-.2.22.03.32-.43.15-.84.78-1.43.69-.33-.05-.61-.4-1.06-.35.22-.29,2.57-1.17,2.89-.98h0Z"/>
  <path class="st24" d="M222.24,56.49c-1.8-.08-.4-.54-1.97-.46.11-.44.26-.86.12-1.4-.38-.04-.71-.03-1,0,.25-.28,1.23-.4,1.41-.04.15.31-.43.94-.08,1.16s2.25-.11,1.87.55c-.07.11-.24.15-.36.2h0Z"/>
  <path class="st24" d="M217.78,54.4c-.11-.91.47-.37,1.03-1.15-.52-.15-.62-.41-.66-.78-.03-.43.18-.52.46-.73.09.26-.31.66-.14.89s.59.14.56.44c-.03.24-.08.43-.43.62.19.14.48-.04.64.27-.63.02-1.1.07-1.46.44Z"/>
  <path class="st4" d="M226.55,61.25s-1.31,1.27-1.56.48c.66-.2,1.4-.86,1.56-.48Z"/>
  <path class="st17" d="M277.3,66.3c0,.27-.72.76-.89.59-.54-.53.66-.95.41-1.65.21.02.4.22.38.3l-.09.38c-.03.14.2.27.2.38h0Z"/>
  <path class="st9" d="M279.82,65.55c-.45-.03-.93.03-1.42.19-.19-.05-.25-.23-.2-.54-.2-.14-.41-.14-.78-.22.14-.19.24-.35.24-.54l.36-.47c.49.25.85.2,1.07-.17-.12-1.44,1.18-.54,2.38-1.51.16-.13.07-.6.21-.67.23-.11.47.02.62.12.17.1.23.33.26.74.8,0,.54-1,.57-1.42,2.52-.6,1.19-2.3,4.23-1.56,1.12-.49,1.62-1.19,2.45-1.6.36-.18.47-.84,1.17-.65.26.07.69.09.94-.06.18-.1.2-.44.47-.8.39.12.42.49.8.72.5-.78,1.27-.6,1.94-.77.54-.34.97-1.17,1.37-1.68l1.31-1.64c.34.51.37.81.67.91.35.11.68.08.9-.14.32-.31,0-.64,0-1.06,0-.2.54-.27.74-.09.14.14.23.41.48.71.25-.34.05-.75.23-1.14.37-.13,1.06-.02,1.19-.38.65-1.8,3.06.08,3.68-1.17,2.45.63,1.2-2.58,3.84-1.7.12-.09.25-.38.34-.45.18-.14.37.17.59.32.72-.51,1.93-.26,2.76-.55.55-.2.65-.5,1.44-.43l2.6.21.31.43c.06.09.38-.09.46-.28.04-.12-.28-.27-.27-.65.72-.17,1.12.75,1.82.8,1,.07,1.61.6,1.87,1.57.82-.86,1.49.89,2.27,1.33.47.26,1,.41,1.09.89.09.44.09,1.19-.37,1.41-.13.06-.22-.32-.27-.39-.09-.11-.24,0-.43.15l-.32-.53-.39.31c-.17.14-.37-.26-.53-.24-1.04.2-.47-.52-2.77-.43-.54.02-.94.83-1.61.46l-.7-1.16c-.45.59-1.02.38-1.64-.05-.32.54.27.71.46,1.17-1.43-.34-.05.92-1.62,1.39-.62.19-1.64-.3-2.35-.18-.35,1.43-1.63.21-1.52,1.49-1.57.18-2.84-.14-4.38-.3-.09.35-.03.55.08.68.18.24.47.09.72.29-.94.39-2.78.18-2.91.83,0,.36.53,1.05.86,1.12.17.03.48-.14.55-.04.1.14.15.31.14.43-.03.21-.31.37-.57.27-.9-.31-.91.64-1.64.35-.51-.2.03-1.17-.35-1.44-.14-.09-.42-.16-.78-.18.13.53.43,1.17.09,1.76-.11.2-1.49.41-1.64.09-.3-.62.72-.25-.28-2.34-.23.46-.72.54-1.32.67-.11,1.06,1.5,1.9,1.35,2.8-1.43-1.18-1.37-.08-2.55-1.25-.18.74,0,1.38-.05,2.1-.51.31-.73-.55-1.12-.66-.97-.26-2.07.61-2.59,1.4-.17.08-.54-.28-.66-.21-.15.09-.22.38-.42.56-.13-.17-.15-.36-.22-.55-.06-.17-.44.06-.54-.03-.37-.37-.43-.81-.91-.8-.88,0-1.54.68-1.67,1-.1.26.23.38.42.6s.18.49.02.66c-.09.09-1.03.84-1.26.33-.11-.24.31-.09.41-.24.46-.66-.03-1.74-.81-1.89-.1.48-.05.92-.37,1.21-.24.21-.66.13-1.1.04-.04.51.2.86.31,1.29-1.42-.41-.48-1.81-1.35-1.97-.24-.04-.26.78-.37.93-.05.07-.26-.06-.39.02-.51.29-.42.89-.68,1.47-.19-.23-.17-.51-.4-.73-.52.19-.96.14-1.34-.1-.09.31.09.51.03.6-.07.1-.38.14-.43.05-.06-.09-.14-.31-.26-.55-.73.2-1.01,1.62-1.95,1.3-.07.43-.4.36-.6.45l.02-.03Z"/>
  <path class="st17" d="M279.82,65.55c-.51.25-1.01.68-1.66.54-.16-.03-.43-.38-.43-.53s.4-.22.47-.37c.09.07.26.11.4.2.11.07.44-.15.33-.26l-.25-.23c-.11-.1.12-.34.4-.24.42.15.52.61.74.88h0Z"/>
  <path class="st17" d="M279.08,63.79c.02.22-.13.54-.39.62-.14.04-.31-.19-.5-.37-.24.09-.36.29-.54.39,0-.2.02-.43.18-.54.36-.26.77.3,1.25-.09Z"/>
  <path class="st5" d="M298.9,59.01c-.57.23-.88-.85-.71-1.14.58-.05,1.11.98.71,1.14Z"/>
  <path class="st2" d="M280.35,64.16c.45-.67.34.04.36.2.03.35-.57.37-.61.09-.06-.42-.3-.68-.17-1.08.41.19.28.54.43.78Z"/>
  <path class="st2" d="M294.66,57.63c-.36.27-.54-.18-.56-.33-.02-.14-.13-.43.15-.52.25,0,.71.62.4.86h0Z"/>
  <rect class="st18" x="288.67" y="104.25" width="2.45" height="1.63"/>
  <rect class="st22" x="288.87" y="104.46" width="2.04" height="1.23"/>
  <text>
    <textPath startOffset="3.03%" xlink:href="#path"><tspan class="st7"><tspan class="st23" x="0" y="0">.. AI</tspan><tspan class="st3" x="0" y="0" xml:space="preserve"> Project ..</tspan></tspan>
    </textPath></text>
</svg>